<mxfile host="drawio-plugin" modified="2024-02-25T00:42:18.975Z" agent="5.0 (Windows NT 10.0; Win64; x64) AppleWebKit/537.36 (KHTML, like Gecko) Chrome/111.0.0.0 Safari/537.36" version="20.5.3" etag="KIGh747BWgLcC_cazJun" type="embed"><diagram id="Plz4iHnLWP7uXbd6hd4a" name="Page-1"><mxGraphModel dx="1140" dy="797" grid="1" gridSize="10" guides="1" tooltips="1" connect="1" arrows="1" fold="1" page="1" pageScale="1" pageWidth="850" pageHeight="1100" math="0" shadow="0"><root><mxCell id="0"/><mxCell id="1" parent="0"/></root></mxGraphModel></diagram></mxfile>